<svg width="34" height="48" viewBox="0 0 34 48" fill="none" xmlns="http://www.w3.org/2000/svg">
<g id="Group">
<path id="Vector" d="M16.9787 0C7.71761 0 0 7.47054 0 16.9787C0 20.5905 1.08036 23.8319 3.17976 26.8573L15.6823 46.5732C15.9909 47.067 16.4849 47.2831 16.9788 47.2831C17.4727 47.2831 17.9667 47.067 18.2753 46.5732L30.8396 26.7955C32.8771 23.8937 33.9575 20.498 33.9575 16.9787C33.9575 7.62489 26.3326 0 16.9787 0ZM16.9787 24.6963C12.7232 24.6963 9.26113 21.2342 9.26113 16.9787C9.26113 12.7232 12.7232 9.26113 16.9787 9.26113C21.2342 9.26113 24.6963 12.7232 24.6963 16.9787C24.6963 21.2342 21.2342 24.6963 16.9787 24.6963Z" fill="#FD3018"/>
<path id="Vector_2" d="M16.9785 0V9.26113C21.234 9.26113 24.6961 12.7232 24.6961 16.9787C24.6961 21.2342 21.234 24.6963 16.9785 24.6963V47.2832C17.4723 47.2832 17.9664 47.0671 18.275 46.5733L30.8393 26.7955C32.8769 23.8937 33.9573 20.498 33.9573 16.9787C33.9573 7.62489 26.3324 0 16.9785 0Z" fill="#E61E14"/>
</g>
</svg>
