<svg width="93" height="94" fill="none" xmlns="http://www.w3.org/2000/svg"><g fill="#000" fill-opacity=".62"><path d="M77.016 24.969c-.386 0-.755-.155-1.028-.43a1.477 1.477 0 0 1-.425-1.039V8.812H69.75v7.344c0 .39-.153.763-.426 1.039a1.445 1.445 0 0 1-2.055 0 1.477 1.477 0 0 1-.425-1.039V7.344c0-.39.153-.763.425-1.039.273-.275.642-.43 1.028-.43h8.719c.385 0 .755.155 1.027.43.273.276.426.65.426 1.039V23.5c0 .39-.153.763-.426 1.039-.272.275-.642.43-1.027.43Zm5.812 66.094H68.42a1.45 1.45 0 0 1-1.028-.43 1.476 1.476 0 0 1 0-2.078 1.45 1.45 0 0 1 1.028-.43h10.05V44.062h-4.36c-.385 0-.755-.154-1.027-.43a1.477 1.477 0 0 1 0-2.077c.272-.275.642-.43 1.027-.43h10.928l-35.63-34.68-35.631 34.68h10.927c.386 0 .755.155 1.028.43a1.477 1.477 0 0 1 0 2.077c-.273.276-.642.43-1.028.43h-4.36V60.22c0 .39-.152.763-.425 1.038a1.445 1.445 0 0 1-2.055 0 1.477 1.477 0 0 1-.425-1.038V44.062h-7.266c-.29 0-.573-.087-.813-.25a1.483 1.483 0 0 1-.196-2.275L48.398 3.348a1.445 1.445 0 0 1 2.014 0l39.234 38.187a1.474 1.474 0 0 1 .34 1.606 1.465 1.465 0 0 1-.534.668c-.24.164-.522.252-.811.252h-7.266v44.063h1.453c.385 0 .755.155 1.028.43a1.477 1.477 0 0 1 0 2.077c-.273.276-.642.43-1.028.43Z"/><path d="M56.672 85.188c-.386 0-.755-.155-1.028-.43a1.476 1.476 0 0 1-.425-1.04v-23.5c0-.389.153-.762.425-1.038a1.445 1.445 0 0 1 2.055 0c.273.276.426.65.426 1.039v23.5c0 .39-.153.763-.426 1.038-.272.276-.642.43-1.027.43Zm-5.813 0c-.385 0-.755-.155-1.027-.43a1.476 1.476 0 0 1-.426-1.04V64.626c0-.39.153-.763.426-1.039a1.445 1.445 0 0 1 2.055 0c.272.276.425.65.425 1.039V83.72c0 .39-.153.763-.425 1.038-.273.276-.642.43-1.028.43Zm-5.812 0c-.386 0-.755-.155-1.028-.43a1.476 1.476 0 0 1-.425-1.04V69.032c0-.39.153-.763.425-1.038a1.445 1.445 0 0 1 2.055 0c.273.275.426.649.426 1.038V83.72c0 .39-.153.763-.426 1.038-.272.276-.642.43-1.027.43Zm-5.813 0c-.385 0-.755-.155-1.027-.43a1.476 1.476 0 0 1-.426-1.04V66.095c0-.39.153-.763.426-1.039a1.445 1.445 0 0 1 2.055 0c.272.276.425.65.425 1.039V83.72c0 .39-.153.763-.425 1.038-.273.276-.642.43-1.028.43Zm-5.812 0c-.386 0-.755-.155-1.028-.43a1.476 1.476 0 0 1-.425-1.04V67.563c0-.389.153-.763.425-1.038a1.445 1.445 0 0 1 2.055 0c.273.275.426.649.426 1.038V83.72c0 .39-.153.763-.426 1.038-.272.276-.642.43-1.027.43Zm-5.813 0c-.385 0-.755-.155-1.027-.43a1.476 1.476 0 0 1-.426-1.04v-8.812c0-.39.153-.763.426-1.038a1.445 1.445 0 0 1 2.055 0c.272.275.425.649.425 1.038v8.813c0 .39-.153.763-.425 1.038-.273.276-.642.43-1.028.43Zm-5.812 0c-.386 0-.755-.155-1.028-.43a1.476 1.476 0 0 1-.425-1.04v-5.874c0-.39.153-.763.425-1.039a1.445 1.445 0 0 1 2.055 0c.273.276.426.65.426 1.039v5.875c0 .39-.153.763-.426 1.038-.272.276-.642.43-1.027.43Zm-5.813 0c-.385 0-.755-.155-1.027-.43a1.476 1.476 0 0 1-.426-1.04v-7.343c0-.39.153-.763.426-1.039a1.445 1.445 0 0 1 2.055 0c.272.276.425.65.425 1.039v7.344c0 .39-.153.763-.425 1.038-.273.276-.642.43-1.028.43Zm-11.625 0c-.385 0-.755-.155-1.027-.43a1.477 1.477 0 0 1-.426-1.04v-2.937c0-.39.153-.763.426-1.038a1.445 1.445 0 0 1 2.055 0c.272.275.426.649.426 1.038v2.938c0 .39-.154.763-.426 1.038-.273.276-.642.43-1.028.43Zm5.813 0c-.386 0-.755-.155-1.028-.43a1.477 1.477 0 0 1-.425-1.04v-5.874c0-.39.153-.763.425-1.039a1.445 1.445 0 0 1 2.055 0c.273.276.426.65.426 1.039v5.875c0 .39-.153.763-.426 1.038-.272.276-.642.43-1.027.43Zm52.312 5.874H4.36c-.385 0-.755-.154-1.027-.43a1.477 1.477 0 0 1 0-2.077c.272-.275.642-.43 1.027-.43h58.125c.386 0 .755.155 1.028.43a1.477 1.477 0 0 1 0 2.077c-.273.276-.642.43-1.028.43Z"/><path d="M4.36 76.372c-.288 0-.568-.086-.807-.247a1.465 1.465 0 0 1-.535-.659 1.483 1.483 0 0 1 .313-1.6l10.172-10.28a1.446 1.446 0 0 1 2.054 0l4.787 4.834L35.3 53.304a1.445 1.445 0 0 1 2.054 0l6.24 6.304 19.315-19.523a1.445 1.445 0 0 1 2.037.018 1.477 1.477 0 0 1 .018 2.059L44.62 62.722a1.445 1.445 0 0 1-2.055 0l-6.237-6.301-14.955 15.116a1.445 1.445 0 0 1-2.055 0l-4.787-4.838-9.143 9.241a1.451 1.451 0 0 1-1.028.432Z"/><path d="M63.94 52.872a1.44 1.44 0 0 1-1.092-.497 1.472 1.472 0 0 1-.352-1.157l1.22-9.873-9.767 1.234a1.44 1.44 0 0 1-1.074-.297 1.463 1.463 0 0 1-.55-.978 1.486 1.486 0 0 1 .293-1.085 1.46 1.46 0 0 1 .968-.557l11.625-1.469a1.447 1.447 0 0 1 1.206.423 1.48 1.48 0 0 1 .418 1.22l-1.453 11.75a1.477 1.477 0 0 1-.48.918 1.447 1.447 0 0 1-.961.368ZM49.408 32.286c-3.192 0-5.787-2.626-5.787-5.849 0-3.222 2.595-5.848 5.787-5.848 3.19 0 5.786 2.623 5.786 5.849 0 3.225-2.596 5.848-5.786 5.848Zm0-8.76c-.765 0-1.498.307-2.038.854a2.928 2.928 0 0 0-.844 2.059c0 .772.303 1.513.844 2.06a2.862 2.862 0 0 0 4.075-.001 2.932 2.932 0 0 0 0-4.119 2.866 2.866 0 0 0-2.038-.853ZM88.64 91.063c.803 0 1.454-.658 1.454-1.47 0-.81-.65-1.468-1.453-1.468s-1.454.658-1.454 1.469c0 .81.651 1.469 1.454 1.469Z"/></g></svg>