<svg width="93" height="95" fill="none" xmlns="http://www.w3.org/2000/svg"><g fill="#000" fill-opacity=".62"><path d="M81.375 17.07v-5.937H66.844V6.68h-2.906v4.453H52.312V6.68h-2.906v4.453H37.781V6.68h-2.906v4.453H23.25V6.68h-2.906v4.453H5.812v71.25h5.813v5.937h75.563V17.07h-5.813ZM8.719 14.102h11.625v2.968H18.89v2.97h5.812v-2.97H23.25v-2.968h11.625v2.968h-1.453v2.97h5.812v-2.97h-1.453v-2.968h11.625v2.968h-1.453v2.97h5.813v-2.97h-1.453v-2.968h11.624v2.968h-1.453v2.97h5.813v-2.97h-1.453v-2.968h11.625V27.46H8.719V14.1Zm0 65.312V30.43h69.75v48.984H8.719Zm75.562 5.938h-69.75v-2.97h66.844V20.04h2.906v65.313Z"/><path d="M56.672 34.883H30.516c-.386 0-.755.156-1.028.435a1.5 1.5 0 0 0-.425 1.05v37.109c0 .393.153.77.425 1.05a1.44 1.44 0 0 0 1.028.434h26.156c.385 0 .755-.156 1.027-.435a1.5 1.5 0 0 0 .426-1.05V36.368a1.5 1.5 0 0 0-.426-1.05 1.438 1.438 0 0 0-1.027-.434Zm-1.453 37.11h-23.25V37.851h23.25v34.14Z"/><path d="M50.22 40.82H36.968a.646.646 0 0 0-.64.653v3.147c0 .361.286.653.64.653H50.22c.353 0 .64-.292.64-.653v-3.147a.646.646 0 0 0-.64-.653ZM36.895 68.95h6.132c.872 0 .494-1.396.567-2.316a.6.6 0 0 0-.17-.406.576.576 0 0 0-.397-.173h-6.132a.576.576 0 0 0-.397.173.6.6 0 0 0-.17.406c.073.92-.305 2.3.567 2.315Zm13.398-2.895h-3.226a.573.573 0 0 0-.567.579v1.81c0 .32.254.58.567.58h3.226c.313 0 .566-.26.566-.58v-1.81a.573.573 0 0 0-.566-.58ZM37.781 48.242c-.385 0-.755.157-1.027.435a1.501 1.501 0 0 0-.426 1.05c0 .393.153.77.426 1.05.272.277.642.434 1.027.434a1.44 1.44 0 0 0 1.028-.435 1.5 1.5 0 0 0 .425-1.05c0-.393-.153-.77-.425-1.05a1.438 1.438 0 0 0-1.028-.434Zm5.813 0a1.44 1.44 0 0 0-1.028.435 1.501 1.501 0 0 0-.425 1.05c0 .393.153.77.425 1.05.273.277.642.434 1.028.434.385 0 .755-.157 1.027-.435a1.5 1.5 0 0 0 .426-1.05c0-.393-.153-.77-.426-1.05a1.438 1.438 0 0 0-1.027-.434Zm5.812 2.969a1.44 1.44 0 0 0 1.028-.435 1.5 1.5 0 0 0 .425-1.05c0-.393-.153-.77-.425-1.05a1.438 1.438 0 0 0-1.028-.434c-.385 0-.755.157-1.027.435a1.501 1.501 0 0 0-.426 1.05c0 .393.153.77.426 1.05.272.277.642.434 1.027.434ZM37.781 54.18c-.385 0-.755.156-1.027.434a1.501 1.501 0 0 0-.426 1.05c0 .394.153.771.426 1.05a1.437 1.437 0 0 0 2.055 0 1.5 1.5 0 0 0 .425-1.05c0-.394-.153-.771-.425-1.05a1.438 1.438 0 0 0-1.028-.434Zm5.813 0a1.44 1.44 0 0 0-1.028.434 1.501 1.501 0 0 0-.425 1.05c0 .394.153.771.425 1.05a1.437 1.437 0 0 0 2.055 0 1.5 1.5 0 0 0 .426-1.05 1.5 1.5 0 0 0-.426-1.05 1.438 1.438 0 0 0-1.027-.434Zm5.812 2.968a1.44 1.44 0 0 0 1.028-.434 1.5 1.5 0 0 0 .425-1.05c0-.394-.153-.771-.425-1.05a1.438 1.438 0 0 0-1.028-.434c-.385 0-.755.156-1.027.434a1.501 1.501 0 0 0-.426 1.05c0 .394.153.771.426 1.05.272.278.642.434 1.027.434Zm-11.625 2.97c-.385 0-.755.156-1.027.434a1.501 1.501 0 0 0-.426 1.05c0 .393.153.77.426 1.05.272.277.642.434 1.027.434a1.44 1.44 0 0 0 1.028-.435 1.5 1.5 0 0 0 .425-1.05c0-.393-.153-.77-.425-1.05a1.438 1.438 0 0 0-1.028-.434Zm5.813 0a1.44 1.44 0 0 0-1.028.434 1.501 1.501 0 0 0-.425 1.05c0 .393.153.77.425 1.05.273.277.642.434 1.028.434.385 0 .755-.157 1.027-.435a1.5 1.5 0 0 0 .426-1.05c0-.393-.153-.77-.426-1.05a1.438 1.438 0 0 0-1.027-.434Zm5.812 2.968a1.44 1.44 0 0 0 1.028-.435 1.5 1.5 0 0 0 .425-1.05c0-.393-.153-.77-.425-1.05a1.438 1.438 0 0 0-1.028-.434c-.385 0-.755.157-1.027.435a1.501 1.501 0 0 0-.426 1.05c0 .393.153.77.426 1.05.272.277.642.434 1.027.434Z"/></g></svg>