<svg width="100" height="101" fill="none" xmlns="http://www.w3.org/2000/svg"><path d="M21.334 50.88c.973.955 1.44 2.204 1.314 3.518-.127 1.345-.89 2.605-2.043 3.37a5.679 5.679 0 0 1-2.03.824v1.311c0 .872-.7 1.577-1.561 1.577a1.57 1.57 0 0 1-1.56-1.577v-1.505c-1.78-.584-3.19-1.94-3.976-3.835a1.581 1.581 0 0 1 .837-2.063 1.555 1.555 0 0 1 2.042.844c.559 1.346 1.456 1.87 2.112 2.072.828.256 1.779.146 2.425-.283.368-.242.61-.63.649-1.033.033-.353-.096-.675-.383-.957-.3-.296-1.16-.501-1.92-.68-1.31-.312-2.943-.7-4.136-1.938-1.028-1.069-1.442-2.665-1.082-4.168.369-1.542 1.46-2.728 2.994-3.253.144-.05.29-.09.44-.13v-1.418c0-.872.698-1.576 1.56-1.576.861 0 1.56.706 1.56 1.576v1.357a5.73 5.73 0 0 1 1.518.566c1.207.669 2.017 1.722 2.341 3.05.208.846-.304 1.7-1.142 1.907a1.56 1.56 0 0 1-1.889-1.154c-.111-.46-.377-.799-.808-1.04-.694-.382-1.729-.443-2.578-.153-.647.22-.88.669-.96 1.006-.109.454.002.937.284 1.227.558.576 1.558.815 2.617 1.067 1.205.292 2.455.59 3.375 1.491Zm54.102 29.385a1.583 1.583 0 0 1 0 2.23c-7.836 7.912-18.256 12.27-29.34 12.27a40.89 40.89 0 0 1-13.414-2.243 5.96 5.96 0 0 1-4.65 2.243H5.995c-3.303 0-5.99-2.714-5.99-6.05 0-1.773.758-3.37 1.963-4.478a6.06 6.06 0 0 1-1.963-4.474c0-1.773.758-3.37 1.963-4.478a6.06 6.06 0 0 1-1.963-4.474c0-3.34 2.687-6.056 5.99-6.056H7.2A17.222 17.222 0 0 1 0 50.733c0-6.16 3.225-11.57 8.059-14.604 6.605-15.302 21.478-25.161 38.039-25.161.863 0 1.56.706 1.56 1.576v39.668l27.778 28.053ZM17.014 64.756c7.656 0 13.884-6.29 13.884-14.023 0-7.737-6.228-14.03-13.884-14.03-7.66 0-13.89 6.293-13.89 14.03-.001 7.732 6.231 14.023 13.89 14.023ZM5.996 73.708h22.035c1.582 0 2.867-1.3 2.867-2.896 0-1.6-1.287-2.902-2.867-2.902H5.996c-1.582 0-2.867 1.302-2.867 2.902 0 1.598 1.287 2.896 2.867 2.896Zm0 8.952h22.035c1.582 0 2.867-1.3 2.867-2.896 0-1.6-1.287-2.902-2.867-2.902H5.996c-1.582 0-2.867 1.302-2.867 2.902 0 1.598 1.287 2.896 2.867 2.896Zm24.902 6.056c0-1.6-1.287-2.902-2.867-2.902H5.996c-1.582 0-2.867 1.302-2.867 2.902 0 1.598 1.287 2.896 2.867 2.896h22.035c1.582.002 2.867-1.298 2.867-2.896Zm41.206-7.358-27.11-27.375a1.577 1.577 0 0 1-.457-1.114V14.154c-13.496.548-25.598 8.17-32.049 20.012a16.807 16.807 0 0 1 4.526-.617c9.379 0 17.008 7.709 17.008 17.184a17.22 17.22 0 0 1-7.198 14.023h1.207c3.303 0 5.99 2.716 5.99 6.056a6.06 6.06 0 0 1-1.962 4.474 6.072 6.072 0 0 1 1.963 4.478 6.06 6.06 0 0 1-1.963 4.474 6.072 6.072 0 0 1 1.894 5.391 37.836 37.836 0 0 0 12.143 1.985c9.73 0 18.904-3.63 26.008-10.256ZM51.62 48.136V7.81c0-.871.7-1.576 1.56-1.576 11.083 0 21.5 4.36 29.337 12.274 7.834 7.914 12.15 18.439 12.15 29.631 0 .872-.7 1.577-1.56 1.577H53.183a1.57 1.57 0 0 1-1.563-1.579Zm3.123-1.576h36.77c-.801-20.115-16.856-36.332-36.77-37.143V46.56ZM100 55.29c0 11.192-4.314 21.714-12.15 29.627a1.55 1.55 0 0 1-2.207 0L57.41 56.404a1.585 1.585 0 0 1-.338-1.718 1.56 1.56 0 0 1 1.442-.975h39.923A1.57 1.57 0 0 1 100 55.29Zm-3.154 1.575h-34.56L86.722 81.55c6.207-6.788 9.76-15.45 10.123-24.684Z" fill="#000" fill-opacity=".62"/><ellipse cx="17.424" cy="50.5" rx="9.848" ry="12.242" fill="#fff"/></svg>