<svg width="95" height="95" fill="none" xmlns="http://www.w3.org/2000/svg"><path fill-rule="evenodd" clip-rule="evenodd" d="M57.957 80.877H4.342a3.04 3.04 0 0 1-3.038-3.033V4.342a3.04 3.04 0 0 1 3.038-3.038h47.335c.834 0 1.556.303 2.143.89l8.67 8.67c.587.587.89 1.309.89 2.144V45.82c9.21.675 16.471 8.36 16.471 17.742 0 3.338-.92 6.461-2.518 9.13l3.353 3.256a2.99 2.99 0 0 1 3.157.628l.002.001 8.95 8.687a2.977 2.977 0 0 1 .062 4.202l-.001.002-3.23 3.327-.002.001a2.983 2.983 0 0 1-4.197.07l-.005-.006-8.946-8.686a2.977 2.977 0 0 1-.73-3.139l-3.197-3.101a17.711 17.711 0 0 1-10.488 3.419c-1.382 0-2.759-.159-4.104-.476ZM50.823 4.284H4.343a.058.058 0 0 0-.059.058v73.502c0 .03.028.053.058.053h47.18a17.885 17.885 0 0 1-4.332-4.565H8.061a1.49 1.49 0 0 1 0-2.98h1.662v-10.85a1.49 1.49 0 0 1 1.49-1.491h6.437a1.49 1.49 0 0 1 1.49 1.49v10.85h2.531V53.04a1.49 1.49 0 0 1 1.49-1.49h6.43a1.49 1.49 0 0 1 1.49 1.49v17.312h2.53V46.285a1.49 1.49 0 0 1 1.49-1.49h6.43a1.49 1.49 0 0 1 1.49 1.49V70.35h2.59a17.742 17.742 0 0 1-1.34-6.789c0-2.348.454-4.591 1.281-6.644V40.215a1.49 1.49 0 0 1 1.49-1.49h6.43a1.49 1.49 0 0 1 1.49 1.49v7.03a17.677 17.677 0 0 1 5.438-1.396V13.86h-7.313a2.277 2.277 0 0 1-2.264-2.264V4.284Zm7.47 6.597-4.49-4.49v4.49h4.49Zm17.28 64.255c-.247.287-.501.566-.765.837l2.823 2.74.788-.813-2.847-2.764Zm-27.04-23.129A17.89 17.89 0 0 1 51.98 48.9v-7.195h-3.449v10.302Zm-11.94 18.344h3.448V47.775h-3.449v22.576Zm-11.941 0H28.1V54.53h-3.448v15.822Zm-11.949 0h3.457v-9.36h-3.457v9.36ZM78.556 82.04l8.935 8.676 3.222-3.319-8.938-8.674-3.22 3.317ZM51.405 31.855C38.46 43.047 24.368 50.177 11.026 54.821a1.49 1.49 0 0 1-.98-2.814C23.02 47.49 36.722 40.574 49.317 29.72l-.908.05a1.491 1.491 0 0 1-.163-2.976l5.144-.284a1.49 1.49 0 0 1 1.557 1.703l-.742 5.103a1.49 1.49 0 0 1-2.95-.43l.15-1.032Zm-17.638-11.25a1.491 1.491 0 0 1 0-2.98h3.811a1.491 1.491 0 0 1 0 2.98h-3.81Zm-23.23 0a1.491 1.491 0 0 1 0-2.98h15.679a1.49 1.49 0 0 1 0 2.98H10.537Zm0-7.092a1.491 1.491 0 0 1 0-2.98h4.317a1.49 1.49 0 0 1 0 2.98h-4.316Zm12.252 0a1.49 1.49 0 0 1 0-2.98h14.79a1.49 1.49 0 0 1 0 2.98h-14.79ZM10.537 27.698a1.49 1.49 0 0 1 0-2.98h11.338a1.491 1.491 0 0 1 0 2.98H10.537Zm17.632 0a1.49 1.49 0 0 1 0-2.98h9.41a1.491 1.491 0 0 1 0 2.98h-9.41Zm33.892 21.054c-8.18 0-14.81 6.63-14.81 14.81s6.63 14.81 14.81 14.81 14.81-6.63 14.81-14.81-6.63-14.81-14.81-14.81Zm0 1.79c7.19 0 13.02 5.829 13.02 13.02 0 7.192-5.83 13.02-13.02 13.02-7.192 0-13.02-5.828-13.02-13.02 0-7.191 5.828-13.02 13.02-13.02Zm0 2.98c-5.545 0-10.04 4.495-10.04 10.04 0 5.545 4.495 10.04 10.04 10.04 5.545 0 10.04-4.495 10.04-10.04 0-5.545-4.495-10.04-10.04-10.04Z" fill="#000" fill-opacity=".62"/></svg>