<svg width="431" height="282" fill="none" xmlns="http://www.w3.org/2000/svg"><path d="M431 141.016c0-52.23-39.713-95.186-90.591-100.319a15.336 15.336 0 0 1-11.807-7.69A65.26 65.26 0 0 0 271.922 0h-77.459a2.394 2.394 0 0 0-2.412 2.097 2.314 2.314 0 0 0 .595 1.793 2.322 2.322 0 0 0 1.729.76h77.556a60.257 60.257 0 0 1 36.831 12.514c9.887 7.596 6.703 23.282-5.323 26.583-42.711 11.715-74.098 50.817-74.098 97.251 0 46.433 31.387 85.54 74.098 97.256 12.026 3.296 15.21 18.981 5.323 26.577a60.256 60.256 0 0 1-36.831 12.52H148.424a2.395 2.395 0 0 0-2.412 2.092 2.319 2.319 0 0 0 1.377 2.361c.299.131.621.198.947.196h123.595a65.26 65.26 0 0 0 56.68-33.007 15.342 15.342 0 0 1 11.807-7.69c50.869-5.1 90.582-48.051 90.582-100.287ZM155.143 4h-.286c-.758 0-1.484-.21-2.02-.586C152.301 3.04 152 2.53 152 2c0-.53.301-1.04.837-1.414.536-.375 1.262-.586 2.02-.586h.286c.758 0 1.484.21 2.02.586.536.375.837.884.837 1.414 0 .53-.301 1.04-.837 1.414-.536.375-1.262.586-2.02.586Zm-38.439 0h-.459c-.609 0-1.193-.21-1.624-.586-.43-.375-.672-.884-.672-1.414 0-.53.242-1.04.672-1.414A2.481 2.481 0 0 1 116.245 0h.459c.609 0 1.193.21 1.623.586.431.375.673.884.673 1.414 0 .53-.242 1.04-.673 1.414a2.477 2.477 0 0 1-1.623.586ZM78.732 4h-.46a2.48 2.48 0 0 1-1.623-.586c-.43-.375-.672-.884-.672-1.414 0-.53.242-1.04.672-1.414A2.48 2.48 0 0 1 78.273 0h.459c.609 0 1.193.21 1.624.586.43.375.672.884.672 1.414 0 .53-.242 1.04-.672 1.414A2.48 2.48 0 0 1 78.732 4ZM40.755 4h-.459a2.48 2.48 0 0 1-1.623-.586C38.242 3.04 38 2.53 38 2c0-.53.242-1.04.672-1.414A2.48 2.48 0 0 1 40.297 0h.46c.608 0 1.192.21 1.623.586.43.375.672.884.672 1.414 0 .53-.242 1.04-.672 1.414A2.48 2.48 0 0 1 40.755 4ZM2.095 4h-.19C1.4 4 .915 3.79.558 3.414A2.052 2.052 0 0 1 0 2C0 1.47.2.96.558.586A1.86 1.86 0 0 1 1.905 0h.19c.505 0 .99.21 1.347.586C3.8.96 4 1.47 4 2c0 .53-.2 1.04-.558 1.414A1.86 1.86 0 0 1 2.095 4Z" fill="#FFB75E"/></svg>