<svg width="64" height="64" fill="none" xmlns="http://www.w3.org/2000/svg"><g fill="#FFA83B"><path d="M48.428 24.761H32.897a2.235 2.235 0 0 1-2.219-2.218 2.235 2.235 0 0 1 2.219-2.22h15.531a2.219 2.219 0 1 1 0 4.438ZM17.366 27.01a2.195 2.195 0 0 1-1.568-.651l-2.219-2.219a2.232 2.232 0 0 1 0-3.136 2.232 2.232 0 0 1 3.136 0l.65.651 5.089-5.088a2.232 2.232 0 0 1 3.136 0 2.232 2.232 0 0 1 0 3.136l-6.656 6.656c-.416.416-.98.65-1.568.65Zm31.062 18.46H32.897a2.235 2.235 0 0 1-2.219-2.22 2.235 2.235 0 0 1 2.219-2.218h15.531a2.219 2.219 0 0 1 0 4.438Zm-31.062 2.248a2.195 2.195 0 0 1-1.568-.65l-2.219-2.22a2.232 2.232 0 0 1 0-3.135 2.232 2.232 0 0 1 3.136 0l.65.65 5.089-5.088a2.232 2.232 0 0 1 3.136 0 2.232 2.232 0 0 1 0 3.136l-6.656 6.656c-.416.416-.98.65-1.568.651Z"/><path d="M40.677 63.604h-17.75C6.863 63.604 0 56.741 0 40.677v-17.75C0 6.863 6.863 0 22.927 0h17.75c16.064 0 22.927 6.863 22.927 22.927v17.75c0 16.064-6.863 22.927-22.927 22.927ZM22.927 4.438c-13.638 0-18.49 4.851-18.49 18.49v17.75c0 13.637 4.852 18.489 18.49 18.489h17.75c13.638 0 18.49-4.852 18.49-18.49v-17.75c0-13.638-4.852-18.49-18.49-18.49h-17.75Z"/></g></svg>