<svg width="58" height="70" fill="none" xmlns="http://www.w3.org/2000/svg"><path d="m23.325 57.932-3.614 11.44a.821.821 0 0 1-.784.576H4.115a.825.825 0 0 1-.665-.337.818.818 0 0 1-.12-.734l5.838-18.486c.198.463.38.981.558 1.494.605 1.74 1.29 3.71 3.025 4.714 1.71.99 3.746.604 5.54.266 1.132-.215 2.303-.435 3.055-.234.573.152 1.273.7 1.979 1.3Zm25.111-7.541c-.203.491-.39.99-.559 1.495-.605 1.738-1.29 3.71-3.024 4.713-1.71.99-3.746.606-5.539.266-1.135-.215-2.306-.434-3.056-.235-.573.154-1.273.702-1.979 1.302l3.613 11.44a.823.823 0 0 0 .785.576H53.49a.825.825 0 0 0 .664-.337.818.818 0 0 0 .12-.734l-5.838-18.486Zm-2.353-21.589c0 9.529-7.752 17.281-17.28 17.281-9.53 0-17.282-7.752-17.282-17.28 0-9.53 7.752-17.282 17.281-17.282s17.281 7.752 17.281 17.281Zm-6.626-3.415a.825.825 0 0 0-.656-.552l-6.39-.977-2.864-6.104a.824.824 0 0 0-1.49 0l-2.864 6.104-6.39.977a.823.823 0 0 0-.465 1.388l4.624 4.74-1.546 6.707a.822.822 0 0 0 1.177.917l6.21-3.182 6.207 3.18a.815.815 0 0 0 .88-.081.824.824 0 0 0 .297-.835l-1.545-6.708 4.623-4.739a.819.819 0 0 0 .192-.835ZM53.45 35.411c-.394 1.473-.102 3.02.181 4.515.233 1.23.497 2.626.12 3.279-.391.675-1.748 1.148-2.946 1.563-1.424.496-2.898 1.008-3.961 2.07-1.067 1.068-1.579 2.541-2.074 3.966-.417 1.198-.889 2.554-1.563 2.945-.082.047-.328.19-.967.19-.68 0-1.509-.157-2.311-.31-.92-.174-1.961-.37-2.962-.37-.566 0-1.074.061-1.55.187-1.429.384-2.592 1.39-3.718 2.363-1.021.883-2.076 1.795-2.896 1.795-.822 0-1.876-.912-2.897-1.795-1.125-.974-2.29-1.98-3.713-2.36a5.981 5.981 0 0 0-1.559-.189c-.997 0-2.038.197-2.957.371-.806.152-1.636.309-2.314.309-.637 0-.884-.143-.964-.19-.676-.391-1.149-1.748-1.565-2.946-.495-1.424-1.007-2.898-2.07-3.961-1.067-1.067-2.54-1.579-3.965-2.074-1.198-.417-2.554-.889-2.945-1.563-.377-.652-.114-2.046.12-3.277.283-1.505.574-3.047.181-4.517-.38-1.423-1.387-2.587-2.36-3.712C.912 30.677 0 29.622 0 28.802c0-.822.912-1.876 1.796-2.897.973-1.125 1.98-2.29 2.359-3.713.394-1.473.102-3.019-.181-4.515-.233-1.23-.497-2.626-.12-3.278.391-.675 1.748-1.148 2.947-1.564 1.423-.495 2.897-1.007 3.96-2.07 1.067-1.068 1.579-2.54 2.074-3.965.417-1.198.889-2.555 1.563-2.945.082-.047.329-.19.968-.19.68 0 1.509.157 2.31.309.918.173 1.956.37 2.962.37a5.975 5.975 0 0 0 1.542-.185c1.437-.385 2.6-1.39 3.725-2.364C26.927.912 27.982 0 28.802 0c.822 0 1.876.912 2.897 1.796 1.125.973 2.29 1.98 3.713 2.359.476.127.986.19 1.557.19.993 0 2.036-.197 2.956-.371.806-.153 1.637-.31 2.315-.31.637 0 .885.144.966.19.675.391 1.148 1.748 1.564 2.947.495 1.423 1.007 2.897 2.07 3.96 1.068 1.067 2.54 1.579 3.965 2.074 1.198.417 2.555.889 2.946 1.563.376.652.113 2.046-.12 3.277-.284 1.505-.574 3.047-.182 4.517.381 1.423 1.388 2.588 2.36 3.713.883 1.022 1.795 2.077 1.795 2.897 0 .822-.912 1.876-1.795 2.897-.973 1.125-1.98 2.29-2.36 3.712Zm-4.074-6.609c0-11.344-9.229-20.573-20.573-20.573-11.344 0-20.573 9.23-20.573 20.573 0 11.344 9.23 20.573 20.573 20.573 11.344 0 20.573-9.229 20.573-20.573Z" fill="#FFA83C"/></svg>