<svg width="62" height="56" fill="none" xmlns="http://www.w3.org/2000/svg"><path d="M61.016 25.023c0-5.103-3.55-9.54-8.432-10.65V2.836c0-1.997-1.997-3.328-3.772-2.663l-23.518 8.21-3.328.443v29.51l3.328.443 23.518 8.21c1.776.665 3.772-.666 3.772-2.663v-8.653c4.882-1.11 8.432-5.547 8.432-10.65Zm-8.432 4.881v-9.54c1.553.887 2.885 2.662 2.885 4.881 0 1.775-1.11 3.55-2.885 4.66ZM24.406 44.326h-.222L8.21 42.33l2.22 9.097c.665 2.44 2.883 4.216 5.324 4.216h7.322c1.775 0 3.106-1.553 2.663-3.328l-1.332-7.988ZM16.641 9.492l-9.32 1.11C3.107 11.044 0 14.594 0 18.81v9.54c0 4.216 3.106 7.766 7.322 8.21l9.319 1.109V9.492Z" fill="#FFA83C"/></svg>