<svg width="68" height="68" fill="none" xmlns="http://www.w3.org/2000/svg"><g fill="#FFA83C" clip-path="url(#a)"><path d="M3.413 64.518c1.853 1.853 5.043 1.954 6.927.07l19.373-19.374c1.369.523 2.822.791 4.287.79 6.629 0 12.004-5.375 12.004-12.004 0-1.849-.419-3.6-1.165-5.163l-9.175 9.175h-3.319l-2.347-2.348v-3.318l9.179-9.178A11.957 11.957 0 0 0 34 21.996c-6.629 0-12.004 5.375-12.004 12.004a11.97 11.97 0 0 0 .79 4.287L3.413 57.66a4.85 4.85 0 0 0 0 6.858Z"/><path d="M68 38.25v-8.5l-4.642-.58a29.68 29.68 0 0 0-1.515-5.668l3.727-2.822-4.25-7.36-4.313 1.82a29.978 29.978 0 0 0-4.146-4.147l1.82-4.313-7.361-4.25-2.822 3.727a29.682 29.682 0 0 0-5.668-1.515L38.25 0h-8.5l-.58 4.642a29.682 29.682 0 0 0-5.668 1.515L20.68 2.43l-7.36 4.25 1.82 4.313a29.978 29.978 0 0 0-4.147 4.146L6.68 13.32 2.43 20.68l3.727 2.823a29.682 29.682 0 0 0-1.515 5.667L0 29.75v8.5l4.642.58a29.68 29.68 0 0 0 1.515 5.668L2.43 47.32l2.082 3.605 8.978-8.977A21.879 21.879 0 0 1 12.003 34c0-12.13 9.868-21.997 21.997-21.997 12.13 0 21.997 9.868 21.997 21.997 0 12.13-9.868 21.997-21.997 21.997-2.801 0-5.481-.528-7.948-1.487l-8.977 8.978 3.605 2.082 2.823-3.727a29.677 29.677 0 0 0 5.667 1.515L29.75 68h8.5l.58-4.642a29.677 29.677 0 0 0 5.668-1.515l2.822 3.727 7.36-4.25-1.82-4.313a29.978 29.978 0 0 0 4.147-4.146l4.313 1.82 4.25-7.361-3.727-2.822a29.677 29.677 0 0 0 1.515-5.668L68 38.25Z"/></g><defs><clipPath id="a"><path fill="#fff" d="M0 0h68v68H0z"/></clipPath></defs></svg>