<svg width="62" height="62" fill="none" xmlns="http://www.w3.org/2000/svg"><g fill="#FFA83C"><path d="M60.673 12.242a12.986 12.986 0 0 0-11.02-10.935 133.713 133.713 0 0 0-37.407.015 12.986 12.986 0 0 0-10.933 11.02C-.443 24.75-.437 37.345 1.328 49.75a12.986 12.986 0 0 0 11.023 10.936c6.178.871 12.41 1.31 18.65 1.31 6.274-.003 12.54-.446 18.752-1.328a12.986 12.986 0 0 0 10.935-11.023 133.547 133.547 0 0 0 1.313-18.65 133.731 133.731 0 0 0-1.328-18.752Zm-5.102 36.68a7.794 7.794 0 0 1-6.547 6.632 128.438 128.438 0 0 1-35.947.013 7.793 7.793 0 0 1-6.634-6.546 127.876 127.876 0 0 1-.01-35.952 7.794 7.794 0 0 1 6.546-6.632 127.875 127.875 0 0 1 35.947-.013 7.794 7.794 0 0 1 6.634 6.547 128.309 128.309 0 0 1 1.274 18.023A128.398 128.398 0 0 1 55.57 48.92v.003Z"/><path d="M49.084 10.328H38.751a2.583 2.583 0 1 0 0 5.167h4.097l-8.507 8.507a2.583 2.583 0 0 0 3.653 3.652l8.507-8.507v4.098a2.583 2.583 0 1 0 5.166 0V12.91a2.584 2.584 0 0 0-2.583-2.583ZM24.008 34.335 15.5 42.842v-4.097a2.583 2.583 0 0 0-5.167 0v10.333a2.584 2.584 0 0 0 2.583 2.583h10.334a2.583 2.583 0 0 0 0-5.166h-4.098l8.507-8.507a2.583 2.583 0 0 0-3.652-3.653Z"/></g></svg>