<svg width="90" height="90" fill="none" xmlns="http://www.w3.org/2000/svg"><path d="M6.75 84.375H22.5a1.125 1.125 0 0 0 1.125-1.125V63a1.125 1.125 0 0 0-1.125-1.125H6.75A1.125 1.125 0 0 0 5.625 63v20.25a1.125 1.125 0 0 0 1.125 1.125Zm1.125-20.25h13.5v18h-13.5v-18Zm19.125-18a1.125 1.125 0 0 0-1.125 1.125v36A1.125 1.125 0 0 0 27 84.375h15.75a1.125 1.125 0 0 0 1.125-1.125v-36a1.125 1.125 0 0 0-1.125-1.125H27Zm14.625 36h-13.5v-33.75h13.5v33.75Zm4.5-50.625v51.75a1.125 1.125 0 0 0 1.125 1.125H63a1.125 1.125 0 0 0 1.125-1.125V31.5A1.125 1.125 0 0 0 63 30.375H47.25a1.125 1.125 0 0 0-1.125 1.125Zm15.75 50.625h-13.5v-49.5h13.5v49.5Zm21.375-76.5H67.5a1.125 1.125 0 0 0-1.125 1.125v76.5a1.125 1.125 0 0 0 1.125 1.125h15.75a1.125 1.125 0 0 0 1.125-1.125V6.75a1.125 1.125 0 0 0-1.125-1.125Zm-1.125 76.5h-13.5V7.875h13.5v74.25Z" fill="#414141"/><path d="M10.404 45.74a1.125 1.125 0 0 0 1.53.154l36.44-27.867V27a1.125 1.125 0 0 0 1.126 1.125H54A1.125 1.125 0 0 0 55.125 27V6.75A1.125 1.125 0 0 0 54 5.625H33.75a1.125 1.125 0 0 0-1.125 1.125v4.5a1.125 1.125 0 0 0 1.125 1.125h8.533l-31.829 31.83a1.125 1.125 0 0 0-.05 1.536Zm35.391-33.695a1.125 1.125 0 0 0-.795-1.92H34.875v-2.25h18v18h-2.25V15.75a1.125 1.125 0 0 0-1.81-.894L24.03 33.81l21.765-21.765Z" fill="#414141"/></svg>