<svg width="97" height="96" fill="none" xmlns="http://www.w3.org/2000/svg"><path d="M85.694 53.963c-2.167-.606-4.351.206-5.563 2.069a5.351 5.351 0 0 0-.543 1.044c-.898 2.412-2.408 6.394-3.44 9.107C75.06 65.18 73.54 64.751 72 65.096c-1.328.297-2.212.894-2.376 1.011l-.021.016a2.29 2.29 0 0 0-.058.044l-4.573 3.706a5.544 5.544 0 0 1-1.792.987c-3.401 1.091-6.432 4.074-7.108 5.733-.552 1.355-.957 6.804-1.068 8.442-.006.1-.002.199.014.296-1.55.506-2.73 1.86-2.933 3.542l-.122 1c-.283 2.336 1.407 4.464 3.767 4.744l11.272 1.337c.172.02.345.03.517.03 2.179 0 4.017-1.616 4.276-3.759l.121-1a4.221 4.221 0 0 0-.91-3.163c4.154-4.102 10.364-10.277 11.47-11.616 1.801-2.175 6.724-17.054 6.763-17.189a2.27 2.27 0 0 0 .072-.691c-.048-2.196-1.467-4.002-3.617-4.603ZM69.22 90.905l-.12 1a1.588 1.588 0 0 1-1.773 1.38l-11.273-1.338a1.584 1.584 0 0 1-1.393-1.754l.12-1a1.588 1.588 0 0 1 1.774-1.38l11.272 1.337c.873.104 1.498.891 1.394 1.755Zm11.156-16.162c-.782.946-5.147 5.356-11.71 11.833a4.406 4.406 0 0 0-.516-.094L57.71 85.243l.004-.03c.213-3.147.609-6.954.877-7.616.294-.722 2.615-3.28 5.426-4.18a8.253 8.253 0 0 0 2.675-1.466l4.538-3.677c.104-.068.618-.39 1.368-.557 1.073-.24 1.805.362 2.133 1.005.132.257.208.538.225.825 0 .033 0 .066.002.099.001.483-.184.995-.687 1.426a650.85 650.85 0 0 1-6.3 5.304 1.346 1.346 0 0 0-.48.913 1.332 1.332 0 0 0 .313.98 1.355 1.355 0 0 0 .921.476 1.37 1.37 0 0 0 .992-.31c.034-.028 3.431-2.85 6.33-5.33 1.017-.87 1.574-2.057 1.623-3.292.51-1.339 3.145-8.263 4.466-11.808.036-.096.114-.265.279-.52.668-1.027 1.75-1.157 2.54-.936.776.216 1.614.875 1.64 2.072v.005c-.581 1.913-5.041 14.692-6.22 16.116Zm-65.357-40.5h9.078v18.713c0 5.002 4.112 9.072 9.166 9.072h31.007c5.054 0 9.166-4.07 9.166-9.072V34.243h8.547a1.93 1.93 0 0 0 1.09-.33 1.9 1.9 0 0 0 .707-.886 1.878 1.878 0 0 0-.494-2.098L49.615.37a1.367 1.367 0 0 0-1.83-.004L13.724 30.922a1.877 1.877 0 0 0-.504 2.1c.139.36.385.67.707.889.321.218.702.334 1.092.332ZM48.693 3.18l31.263 28.376h-7.879c-.36 0-.705.142-.96.394a1.337 1.337 0 0 0-.398.95v20.057c0 3.52-2.893 6.383-6.45 6.383H33.262c-3.557 0-6.45-2.863-6.45-6.383V32.899c0-.356-.144-.698-.398-.95a1.365 1.365 0 0 0-.96-.394H17.06L48.693 3.18Z" fill="#414141"/><path d="M46.483 49.708a3.498 3.498 0 0 0 4.024.036c2.087-1.432 6.01-4.38 8.825-8.026 4.662-6.037 3.578-10.512 1.847-13.202-1.39-2.162-3.442-3.305-5.93-3.305-2.736 0-5.374 1.388-6.68 2.197-1.322-.88-4.045-2.424-6.879-2.424-2.368 0-4.361 1.077-5.763 3.113-1.82 2.643-3.005 7.098 1.68 13.306 2.82 3.737 6.772 6.807 8.876 8.305ZM38.172 29.61c.897-1.304 2.048-1.938 3.518-1.938 2.91 0 5.97 2.398 6 2.42a1.37 1.37 0 0 0 1.667.029c.03-.023 3.032-2.222 5.891-2.222 1.558 0 2.748.674 3.64 2.061 4.457 6.928-6.473 15.204-9.928 17.575a.765.765 0 0 1-.891-.01c-3.5-2.49-14.557-11.144-9.897-17.915Zm6.744 59.262c-.204-1.682-1.383-3.036-2.934-3.541.016-.098.02-.198.014-.297-.111-1.638-.516-7.087-1.068-8.442-.675-1.659-3.706-4.642-7.108-5.733a5.54 5.54 0 0 1-1.791-.987l-4.574-3.706-.036-.028a1.412 1.412 0 0 0-.044-.032c-.163-.117-1.049-.715-2.375-1.011-1.54-.344-3.06.085-4.149 1.088-1.031-2.714-2.54-6.696-3.44-9.107a5.36 5.36 0 0 0-.543-1.045c-1.211-1.863-3.395-2.675-5.562-2.069-2.15.6-3.57 2.408-3.617 4.604-.006.284.016.497.071.688.04.138 4.965 15.018 6.763 17.191 1.106 1.338 7.316 7.513 11.47 11.615l-.018.02a4.223 4.223 0 0 0-.891 3.144l.12 1c.26 2.143 2.098 3.759 4.277 3.76a4.4 4.4 0 0 0 .516-.032l11.273-1.336c2.36-.28 4.05-2.408 3.767-4.744l-.121-1Zm-28.291-14.13c-1.177-1.422-5.637-14.198-6.22-16.116v-.004c.026-1.198.863-1.856 1.639-2.073.79-.221 1.872-.091 2.54.937.166.255.243.423.28.52 1.32 3.544 3.955 10.467 4.465 11.807.05 1.236.607 2.423 1.623 3.293 2.899 2.48 6.297 5.302 6.33 5.33a1.368 1.368 0 0 0 1.914-.166 1.34 1.34 0 0 0 .312-.981 1.336 1.336 0 0 0-.48-.912 653.587 653.587 0 0 1-6.3-5.305c-.503-.43-.688-.942-.687-1.425.002-.033.003-.067.002-.1.018-.287.094-.567.225-.824.328-.643 1.06-1.245 2.133-1.006a4.315 4.315 0 0 1 1.368.558l4.539 3.677a8.254 8.254 0 0 0 2.675 1.465c2.81.901 5.132 3.46 5.426 4.18.267.663.663 4.47.877 7.618 0 .01.002.019.003.028L28.85 86.481c-.175.021-.346.055-.515.096-6.564-6.479-10.93-10.89-11.71-11.834ZM42.01 91.356a1.58 1.58 0 0 1-1.063.592l-11.273 1.337a1.588 1.588 0 0 1-1.773-1.38l-.12-1a1.55 1.55 0 0 1 .329-1.162 1.58 1.58 0 0 1 1.064-.592l11.272-1.337a1.588 1.588 0 0 1 1.773 1.379l.12 1a1.553 1.553 0 0 1-.329 1.163Z" fill="#414141"/></svg>