<svg width="87" height="87" fill="none" xmlns="http://www.w3.org/2000/svg"><path d="M63.724 51.7a3.583 3.583 0 0 0-1.72-2.773 3.612 3.612 0 0 0-3.985.145l-9.233 6.592-.767-7.134a4.27 4.27 0 0 0-4.252-3.82 4.294 4.294 0 0 0-4.237 3.693l-1.313 9.532-5.986-8.044a3.826 3.826 0 0 0-3.444-1.515 3.775 3.775 0 0 0-3.07 2.196 3.775 3.775 0 0 0 .328 3.761l9.952 14.37c-.127 7.352-3.703 16.455-3.74 16.548A1.277 1.277 0 0 0 33.446 87h19.36a1.277 1.277 0 0 0 1.13-1.875c-.047-.087-4.542-8.722-4.177-19.151l12.755-11.245a3.582 3.582 0 0 0 1.211-3.03Zm-2.9 1.112L47.66 64.417a1.277 1.277 0 0 0-.43.893c-.433 8.5 2.154 15.822 3.571 19.135H35.278c1.116-3.188 3.278-10.139 3.278-16.136 0-.26-.08-.513-.228-.727L28.146 52.879a1.232 1.232 0 0 1-.108-1.238c.09-.195.368-.657 1.01-.722a1.26 1.26 0 0 1 1.133.498l7.85 10.55a1.278 1.278 0 0 0 2.292-.588l1.739-12.627a1.728 1.728 0 0 1 1.705-1.486c.881 0 1.617.66 1.711 1.537l1.001 9.309a1.277 1.277 0 0 0 2.013.903l11.012-7.863a1.06 1.06 0 0 1 1.675.771c.03.34-.1.664-.356.89Z" fill="#4C4C4C"/><path d="M83.313 36.977c0-2.96-.964-5.86-2.734-8.267a7.94 7.94 0 0 0 1.247-4.29c0-4.558-3.852-8.265-8.587-8.265h-.114C71.4 10.522 65.942 6.539 59.73 6.539a14.47 14.47 0 0 0-3.783.5C53.587 2.728 48.939 0 43.799 0c-5.746 0-10.854 3.45-12.846 8.531a16.405 16.405 0 0 0-3.748-.433c-7.126 0-13.384 4.639-15.24 11.157-4.14.61-7.258 4.028-7.258 8.158 0 2.099.843 4.116 2.31 5.632-2.133 2.194-3.331 5.082-3.331 8.121 0 5.534 3.902 10.257 9.406 11.558 1.167 6.796 7.014 12.034 14.25 12.612a1.28 1.28 0 0 0 1.075-2.102 1.278 1.278 0 0 0-.87-.445c-6.343-.507-11.407-5.25-12.043-11.275a1.278 1.278 0 0 0-1.069-1.128c-4.748-.76-8.194-4.638-8.194-9.22 0-2.76 1.275-5.365 3.5-7.149a1.28 1.28 0 0 0-.061-2.04c-1.536-1.088-2.417-2.752-2.417-4.564 0-3.068 2.535-5.57 5.77-5.694a1.278 1.278 0 0 0 1.2-1.008c1.256-5.827 6.712-10.057 12.972-10.057 1.42 0 2.833.217 4.187.647a1.28 1.28 0 0 0 1.617-.872c1.303-4.636 5.74-7.873 10.79-7.873 4.525 0 8.574 2.567 10.315 6.54a1.278 1.278 0 0 0 1.6.691 11.882 11.882 0 0 1 4.016-.693c5.406 0 10.107 3.651 11.178 8.681a1.278 1.278 0 0 0 1.429 1c.299-.043.6-.064.902-.064 3.325 0 6.031 2.56 6.031 5.709a5.461 5.461 0 0 1-1.278 3.51 1.277 1.277 0 0 0 .012 1.642c1.801 2.118 2.753 4.679 2.753 7.405 0 5.43-3.864 10.132-9.398 11.436a1.278 1.278 0 0 0-.928 1.619c1.088 3.545-.154 6.28-1.388 7.949-2.146 2.902-5.982 4.852-9.547 4.852-.368 0-.739-.017-1.102-.05a1.278 1.278 0 0 0-.238 2.544c.443.041.893.062 1.34.062 4.403 0 8.957-2.311 11.602-5.89 1.972-2.668 2.696-5.803 2.093-8.947 6.02-1.956 10.122-7.373 10.122-13.575Z" fill="#4C4C4C"/></svg>