<svg width="57" height="54" fill="none" xmlns="http://www.w3.org/2000/svg"><g clip-path="url(#a)"><path d="M52.426 35.445a34.01 34.01 0 0 1-10.163-1.534c-1.591-.514-3.547-.042-4.518.902l-6.41 4.584c-7.432-3.759-12.01-8.095-15.924-15.083l4.696-5.914c1.22-1.154 1.658-2.84 1.133-4.422a29.233 29.233 0 0 1-1.625-9.645c0-2.39-2.051-4.333-4.573-4.333H4.574C2.052 0 0 1.944 0 4.333 0 31.72 23.518 54 52.426 54 54.948 54 57 52.056 57 49.667v-9.89c0-2.388-2.052-4.332-4.574-4.332Z" fill="url(#b)"/></g><defs><linearGradient id="b" x1="28.5" y1="0" x2="28.5" y2="54" gradientUnits="userSpaceOnUse"><stop stop-color="#FFB75E"/><stop offset="1" stop-color="#FFA73A"/></linearGradient><clipPath id="a"><path fill="#fff" d="M0 0h57v54H0z"/></clipPath></defs></svg>