<svg width="64" height="64" fill="none" xmlns="http://www.w3.org/2000/svg"><path d="m41.469 34.656-5.36 5.379c-2.174 2.18-5.999 2.228-8.22 0l-5.36-5.379L3.277 53.971a5.57 5.57 0 0 0 2.347.529h52.75c.84 0 1.63-.198 2.346-.53L41.47 34.657Z" fill="url(#a)"/><path d="M58.375 9.5H5.625c-.84 0-1.63.198-2.346.53L23.85 30.67l.004.002.002.004 6.689 6.711c.71.71 2.198.71 2.909 0l6.687-6.71.003-.005.005-.003L60.72 10.03a5.564 5.564 0 0 0-2.346-.529ZM.598 12.652A5.556 5.556 0 0 0 0 15.125v33.75c0 .892.227 1.724.598 2.474L19.884 32 .598 12.65Zm62.804 0L44.117 32l19.285 19.348c.37-.75.598-1.582.598-2.474v-33.75c0-.892-.227-1.724-.598-2.474Z" fill="url(#b)"/><defs><linearGradient id="a" x1="31.999" y1="34.656" x2="31.999" y2="54.5" gradientUnits="userSpaceOnUse"><stop stop-color="#FFB75E"/><stop offset="1" stop-color="#FFA73A"/></linearGradient><linearGradient id="b" x1="32" y1="9.5" x2="32" y2="51.349" gradientUnits="userSpaceOnUse"><stop stop-color="#FFB75E"/><stop offset="1" stop-color="#FFA73A"/></linearGradient></defs></svg>