<svg width="97" height="27" fill="none" xmlns="http://www.w3.org/2000/svg"><path d="M.858 26v-3.828l.72-.037c.978-.058 1.753-.41 2.325-1.057.58-.646 1.006-1.686 1.28-3.12.282-1.433.468-3.355.56-5.767L6.164.545h16.68V26h-4.512V4.336h-7.868l-.397 9.285c-.117 2.784-.423 5.091-.92 6.923-.49 1.83-1.293 3.198-2.411 4.101C5.627 25.548 4.08 26 2.1 26H.858Zm49.759-12.727c0 2.742-.514 5.091-1.541 7.047-1.02 1.947-2.411 3.439-4.176 4.474-1.757 1.036-3.75 1.554-5.979 1.554s-4.225-.518-5.99-1.554c-1.757-1.044-3.15-2.54-4.177-4.486-1.019-1.956-1.528-4.3-1.528-7.035 0-2.743.51-5.088 1.528-7.035 1.028-1.956 2.42-3.451 4.177-4.487C34.696.715 36.692.197 38.92.197c2.23 0 4.222.518 5.979 1.554 1.765 1.036 3.157 2.531 4.176 4.487 1.027 1.947 1.541 4.292 1.541 7.035Zm-4.636 0c0-1.93-.302-3.56-.907-4.885-.597-1.334-1.425-2.34-2.486-3.02-1.06-.688-2.283-1.032-3.667-1.032-1.383 0-2.606.344-3.666 1.032-1.06.68-1.894 1.686-2.498 3.02-.597 1.326-.895 2.954-.895 4.885 0 1.93.298 3.563.895 4.897.604 1.325 1.437 2.332 2.498 3.02 1.06.68 2.283 1.02 3.666 1.02 1.384 0 2.606-.34 3.667-1.02 1.06-.688 1.89-1.695 2.486-3.02.605-1.334.907-2.967.907-4.897ZM71.345.545v3.866H59.588V26h-4.611V.545h16.368Zm25.517 12.728c0 2.742-.514 5.091-1.541 7.047-1.02 1.947-2.411 3.439-4.176 4.474-1.757 1.036-3.75 1.554-5.978 1.554-2.23 0-4.226-.518-5.991-1.554-1.757-1.044-3.149-2.54-4.176-4.486-1.02-1.956-1.53-4.3-1.53-7.035 0-2.743.51-5.088 1.53-7.035 1.027-1.956 2.42-3.451 4.176-4.487C80.94.715 82.937.197 85.166.197c2.23 0 4.222.518 5.979 1.554 1.765 1.036 3.157 2.531 4.176 4.487 1.027 1.947 1.541 4.292 1.541 7.035Zm-4.636 0c0-1.93-.302-3.56-.907-4.885-.597-1.334-1.425-2.34-2.486-3.02-1.06-.688-2.283-1.032-3.666-1.032-1.384 0-2.606.344-3.667 1.032-1.06.68-1.893 1.686-2.498 3.02-.597 1.326-.895 2.954-.895 4.885 0 1.93.298 3.563.895 4.897.605 1.325 1.437 2.332 2.498 3.02 1.06.68 2.283 1.02 3.666 1.02 1.384 0 2.606-.34 3.667-1.02 1.06-.688 1.89-1.695 2.486-3.02.605-1.334.907-2.967.907-4.897Z" fill="#000"/></svg>